<mxfile host="app.diagrams.net" modified="2021-12-17T17:53:49.596Z" agent="5.0 (X11)" etag="7SSw9_ZlTrvKx6nQQbw6" version="15.9.6" type="github">
  <diagram id="C5RBs43oDa-KdzZeNtuy" name="Page-1">
    <mxGraphModel dx="1030" dy="1753" grid="1" gridSize="10" guides="1" tooltips="1" connect="1" arrows="1" fold="1" page="1" pageScale="1" pageWidth="827" pageHeight="1169" math="0" shadow="0">
      <root>
        <mxCell id="WIyWlLk6GJQsqaUBKTNV-0" />
        <mxCell id="WIyWlLk6GJQsqaUBKTNV-1" parent="WIyWlLk6GJQsqaUBKTNV-0" />
        <mxCell id="WIyWlLk6GJQsqaUBKTNV-3" value="student register account" style="rounded=1;whiteSpace=wrap;html=1;fontSize=12;glass=0;strokeWidth=1;shadow=0;" parent="WIyWlLk6GJQsqaUBKTNV-1" vertex="1">
          <mxGeometry x="340" y="-590" width="120" height="40" as="geometry" />
        </mxCell>
        <mxCell id="kXzvup9dMq2idnFVMVO1-3" value="" style="edgeStyle=orthogonalEdgeStyle;rounded=0;orthogonalLoop=1;jettySize=auto;html=1;" parent="WIyWlLk6GJQsqaUBKTNV-1" source="WIyWlLk6GJQsqaUBKTNV-3" target="kXzvup9dMq2idnFVMVO1-5" edge="1">
          <mxGeometry relative="1" as="geometry" />
        </mxCell>
        <mxCell id="kXzvup9dMq2idnFVMVO1-5" value="data validation, save data to db" style="rounded=0;whiteSpace=wrap;html=1;" parent="WIyWlLk6GJQsqaUBKTNV-1" vertex="1">
          <mxGeometry x="305" y="-520" width="190" height="40" as="geometry" />
        </mxCell>
        <mxCell id="kXzvup9dMq2idnFVMVO1-9" value="" style="edgeStyle=orthogonalEdgeStyle;rounded=0;orthogonalLoop=1;jettySize=auto;html=1;" parent="WIyWlLk6GJQsqaUBKTNV-1" source="kXzvup9dMq2idnFVMVO1-6" target="kXzvup9dMq2idnFVMVO1-8" edge="1">
          <mxGeometry relative="1" as="geometry" />
        </mxCell>
        <mxCell id="kXzvup9dMq2idnFVMVO1-6" value="&lt;span class=&quot;VIiyi&quot; lang=&quot;en&quot;&gt;&lt;span class=&quot;JLqJ4b ChMk0b&quot;&gt;&lt;span&gt;choosing a field of study&lt;/span&gt;&lt;/span&gt;&lt;/span&gt; " style="shape=parallelogram;perimeter=parallelogramPerimeter;whiteSpace=wrap;html=1;fixedSize=1;" parent="WIyWlLk6GJQsqaUBKTNV-1" vertex="1">
          <mxGeometry x="340" y="-460" width="120" height="60" as="geometry" />
        </mxCell>
        <mxCell id="kXzvup9dMq2idnFVMVO1-7" value="" style="endArrow=classic;html=1;rounded=0;" parent="WIyWlLk6GJQsqaUBKTNV-1" source="kXzvup9dMq2idnFVMVO1-5" target="kXzvup9dMq2idnFVMVO1-6" edge="1">
          <mxGeometry width="50" height="50" relative="1" as="geometry">
            <mxPoint x="390" y="-320" as="sourcePoint" />
            <mxPoint x="440" y="-370" as="targetPoint" />
          </mxGeometry>
        </mxCell>
        <mxCell id="kXzvup9dMq2idnFVMVO1-11" value="" style="edgeStyle=orthogonalEdgeStyle;rounded=0;orthogonalLoop=1;jettySize=auto;html=1;" parent="WIyWlLk6GJQsqaUBKTNV-1" source="kXzvup9dMq2idnFVMVO1-8" target="kXzvup9dMq2idnFVMVO1-10" edge="1">
          <mxGeometry relative="1" as="geometry" />
        </mxCell>
        <mxCell id="kXzvup9dMq2idnFVMVO1-8" value="&lt;span class=&quot;VIiyi&quot; lang=&quot;en&quot;&gt;&lt;span class=&quot;JLqJ4b ChMk0b&quot;&gt;&lt;span&gt;entry to the db of the selected course (s), calculation of the recruitment fee, entry to the database of the required amount, setting the status of the amount to be paid as pending&lt;/span&gt;&lt;/span&gt;&lt;/span&gt; " style="rounded=0;whiteSpace=wrap;html=1;" parent="WIyWlLk6GJQsqaUBKTNV-1" vertex="1">
          <mxGeometry x="290" y="-380" width="220" height="90" as="geometry" />
        </mxCell>
        <mxCell id="rJLKmksMfXtSssTEuBwt-1" value="" style="edgeStyle=orthogonalEdgeStyle;rounded=0;orthogonalLoop=1;jettySize=auto;html=1;" parent="WIyWlLk6GJQsqaUBKTNV-1" source="kXzvup9dMq2idnFVMVO1-10" target="rJLKmksMfXtSssTEuBwt-0" edge="1">
          <mxGeometry relative="1" as="geometry" />
        </mxCell>
        <mxCell id="kXzvup9dMq2idnFVMVO1-10" value="&lt;span class=&quot;VIiyi&quot; lang=&quot;en&quot;&gt;&lt;span class=&quot;JLqJ4b ChMk0b&quot;&gt;&lt;span&gt;generating data for the enrollment fee for a student (downloading information from the db about unpaid fees), a list of required documents depending on the selected&lt;/span&gt;&lt;/span&gt;&lt;span class=&quot;JLqJ4b&quot;&gt;&lt;span&gt;&lt;br&gt;&lt;/span&gt;&lt;/span&gt;&lt;span class=&quot;JLqJ4b ChMk0b&quot;&gt;&lt;span&gt;direction (retrieve information from db which direction requires which&lt;/span&gt;&lt;/span&gt;&lt;span class=&quot;JLqJ4b&quot;&gt;&lt;span&gt;&lt;br&gt;&lt;/span&gt;&lt;/span&gt;&lt;span class=&quot;JLqJ4b ChMk0b&quot;&gt;&lt;span&gt;documents) and the application form, e.g. with the qr code supplemented with data&lt;/span&gt;&lt;/span&gt;&lt;span class=&quot;JLqJ4b&quot;&gt;&lt;span&gt;&lt;br&gt;&lt;/span&gt;&lt;/span&gt;&lt;span class=&quot;JLqJ4b ChMk0b&quot;&gt;&lt;span&gt;given when registering the account and the qr code to stick on&lt;/span&gt;&lt;/span&gt;&lt;span class=&quot;JLqJ4b&quot;&gt;&lt;span&gt;&lt;br&gt;&lt;/span&gt;&lt;/span&gt;&lt;span class=&quot;JLqJ4b ChMk0b&quot;&gt;&lt;span&gt;an envelope&lt;/span&gt;&lt;/span&gt;&lt;/span&gt; " style="shape=parallelogram;perimeter=parallelogramPerimeter;whiteSpace=wrap;html=1;fixedSize=1;" parent="WIyWlLk6GJQsqaUBKTNV-1" vertex="1">
          <mxGeometry x="80" y="-260" width="640" height="100" as="geometry" />
        </mxCell>
        <mxCell id="rJLKmksMfXtSssTEuBwt-3" value="" style="edgeStyle=orthogonalEdgeStyle;rounded=0;orthogonalLoop=1;jettySize=auto;html=1;" parent="WIyWlLk6GJQsqaUBKTNV-1" source="rJLKmksMfXtSssTEuBwt-0" target="rJLKmksMfXtSssTEuBwt-2" edge="1">
          <mxGeometry relative="1" as="geometry" />
        </mxCell>
        <mxCell id="rJLKmksMfXtSssTEuBwt-11" value="" style="edgeStyle=orthogonalEdgeStyle;rounded=0;orthogonalLoop=1;jettySize=auto;html=1;" parent="WIyWlLk6GJQsqaUBKTNV-1" source="rJLKmksMfXtSssTEuBwt-0" target="rJLKmksMfXtSssTEuBwt-10" edge="1">
          <mxGeometry relative="1" as="geometry" />
        </mxCell>
        <mxCell id="rJLKmksMfXtSssTEuBwt-0" value="&lt;span class=&quot;VIiyi&quot; lang=&quot;en&quot;&gt;&lt;span class=&quot;JLqJ4b ChMk0b&quot;&gt;&lt;span&gt;student withdraws his application&lt;/span&gt;&lt;/span&gt;&lt;/span&gt; " style="rhombus;whiteSpace=wrap;html=1;" parent="WIyWlLk6GJQsqaUBKTNV-1" vertex="1">
          <mxGeometry x="302.5" y="-110" width="195" height="180" as="geometry" />
        </mxCell>
        <mxCell id="rJLKmksMfXtSssTEuBwt-2" value="&lt;span class=&quot;VIiyi&quot; lang=&quot;en&quot;&gt;&lt;span class=&quot;JLqJ4b ChMk0b&quot;&gt;&lt;span&gt;marking the application in db as canceled, marking the fee in db as canceled in the case of pending ones and marking in db the fee to be refunded in case of fee being paid if the enrollment has not been carried out yet, removing the student from the list if the enrollment process has already ended&lt;/span&gt;&lt;/span&gt;&lt;/span&gt; " style="whiteSpace=wrap;html=1;" parent="WIyWlLk6GJQsqaUBKTNV-1" vertex="1">
          <mxGeometry x="5" y="-76.25" width="270" height="112.5" as="geometry" />
        </mxCell>
        <mxCell id="rJLKmksMfXtSssTEuBwt-5" value="yes" style="text;html=1;strokeColor=none;fillColor=none;align=center;verticalAlign=middle;whiteSpace=wrap;rounded=0;" parent="WIyWlLk6GJQsqaUBKTNV-1" vertex="1">
          <mxGeometry x="265" y="-20" width="60" height="30" as="geometry" />
        </mxCell>
        <mxCell id="rJLKmksMfXtSssTEuBwt-8" value="no" style="text;html=1;strokeColor=none;fillColor=none;align=center;verticalAlign=middle;whiteSpace=wrap;rounded=0;" parent="WIyWlLk6GJQsqaUBKTNV-1" vertex="1">
          <mxGeometry x="395" y="80" width="60" height="30" as="geometry" />
        </mxCell>
        <mxCell id="rJLKmksMfXtSssTEuBwt-15" value="" style="edgeStyle=orthogonalEdgeStyle;rounded=0;orthogonalLoop=1;jettySize=auto;html=1;" parent="WIyWlLk6GJQsqaUBKTNV-1" source="rJLKmksMfXtSssTEuBwt-10" target="rJLKmksMfXtSssTEuBwt-14" edge="1">
          <mxGeometry relative="1" as="geometry" />
        </mxCell>
        <mxCell id="rJLKmksMfXtSssTEuBwt-10" value="&lt;span class=&quot;VIiyi&quot; lang=&quot;en&quot;&gt;&lt;span class=&quot;JLqJ4b ChMk0b&quot;&gt;&lt;span&gt;sending documents by post or delivering them in person&lt;/span&gt;&lt;/span&gt;&lt;/span&gt; " style="whiteSpace=wrap;html=1;" parent="WIyWlLk6GJQsqaUBKTNV-1" vertex="1">
          <mxGeometry x="340" y="120" width="120" height="60" as="geometry" />
        </mxCell>
        <mxCell id="rJLKmksMfXtSssTEuBwt-17" value="" style="edgeStyle=orthogonalEdgeStyle;rounded=0;orthogonalLoop=1;jettySize=auto;html=1;startArrow=none;" parent="WIyWlLk6GJQsqaUBKTNV-1" source="rJLKmksMfXtSssTEuBwt-21" target="rJLKmksMfXtSssTEuBwt-16" edge="1">
          <mxGeometry relative="1" as="geometry" />
        </mxCell>
        <mxCell id="rJLKmksMfXtSssTEuBwt-14" value="&lt;span class=&quot;VIiyi&quot; lang=&quot;en&quot;&gt;&lt;span class=&quot;JLqJ4b ChMk0b&quot;&gt;&lt;span&gt;acceptance of the application by the employee (scan of the qr code from the envelope and entry of information about getting the application into the db)&lt;/span&gt;&lt;/span&gt;&lt;/span&gt; " style="whiteSpace=wrap;html=1;" parent="WIyWlLk6GJQsqaUBKTNV-1" vertex="1">
          <mxGeometry x="315" y="230" width="170" height="97.5" as="geometry" />
        </mxCell>
        <mxCell id="rJLKmksMfXtSssTEuBwt-19" value="" style="edgeStyle=orthogonalEdgeStyle;rounded=0;orthogonalLoop=1;jettySize=auto;html=1;" parent="WIyWlLk6GJQsqaUBKTNV-1" source="rJLKmksMfXtSssTEuBwt-16" target="rJLKmksMfXtSssTEuBwt-18" edge="1">
          <mxGeometry relative="1" as="geometry" />
        </mxCell>
        <mxCell id="rJLKmksMfXtSssTEuBwt-31" value="" style="edgeStyle=orthogonalEdgeStyle;rounded=0;orthogonalLoop=1;jettySize=auto;html=1;entryX=0.5;entryY=0;entryDx=0;entryDy=0;" parent="WIyWlLk6GJQsqaUBKTNV-1" source="rJLKmksMfXtSssTEuBwt-16" target="rJLKmksMfXtSssTEuBwt-37" edge="1">
          <mxGeometry relative="1" as="geometry">
            <mxPoint x="410" y="980" as="targetPoint" />
          </mxGeometry>
        </mxCell>
        <mxCell id="rJLKmksMfXtSssTEuBwt-16" value="&lt;span class=&quot;VIiyi&quot; lang=&quot;en&quot;&gt;&lt;span class=&quot;JLqJ4b ChMk0b&quot;&gt;&lt;span&gt;application has been paid for&lt;/span&gt;&lt;/span&gt;&lt;/span&gt; " style="rhombus;whiteSpace=wrap;html=1;" parent="WIyWlLk6GJQsqaUBKTNV-1" vertex="1">
          <mxGeometry x="325" y="600" width="150" height="121.25" as="geometry" />
        </mxCell>
        <mxCell id="rJLKmksMfXtSssTEuBwt-56" value="" style="edgeStyle=orthogonalEdgeStyle;rounded=0;orthogonalLoop=1;jettySize=auto;html=1;entryX=0.5;entryY=1;entryDx=0;entryDy=0;" parent="WIyWlLk6GJQsqaUBKTNV-1" source="rJLKmksMfXtSssTEuBwt-18" target="rJLKmksMfXtSssTEuBwt-59" edge="1">
          <mxGeometry relative="1" as="geometry">
            <mxPoint x="637.5" y="715" as="targetPoint" />
          </mxGeometry>
        </mxCell>
        <mxCell id="rJLKmksMfXtSssTEuBwt-18" value="&lt;span class=&quot;VIiyi&quot; lang=&quot;en&quot;&gt;&lt;span class=&quot;JLqJ4b ChMk0b&quot;&gt;&lt;span&gt;in the case of an application waiting for a fee, the employee puts the envelope with the application on the waiting pile (in the case of paying for the application or resignation, the program notifies the employee about the change in the application status)&lt;/span&gt;&lt;/span&gt;&lt;/span&gt; " style="whiteSpace=wrap;html=1;" parent="WIyWlLk6GJQsqaUBKTNV-1" vertex="1">
          <mxGeometry x="523.75" y="509.99999999999994" width="220" height="99.37" as="geometry" />
        </mxCell>
        <mxCell id="rJLKmksMfXtSssTEuBwt-20" value="no" style="text;html=1;strokeColor=none;fillColor=none;align=center;verticalAlign=middle;whiteSpace=wrap;rounded=0;" parent="WIyWlLk6GJQsqaUBKTNV-1" vertex="1">
          <mxGeometry x="450" y="600" width="60" height="30" as="geometry" />
        </mxCell>
        <mxCell id="rJLKmksMfXtSssTEuBwt-28" value="" style="edgeStyle=orthogonalEdgeStyle;rounded=0;orthogonalLoop=1;jettySize=auto;html=1;" parent="WIyWlLk6GJQsqaUBKTNV-1" source="rJLKmksMfXtSssTEuBwt-21" target="rJLKmksMfXtSssTEuBwt-27" edge="1">
          <mxGeometry relative="1" as="geometry" />
        </mxCell>
        <mxCell id="rJLKmksMfXtSssTEuBwt-21" value="&lt;span class=&quot;VIiyi&quot; lang=&quot;en&quot;&gt;&lt;span class=&quot;JLqJ4b ChMk0b&quot;&gt;&lt;span&gt;application has been canceled&lt;/span&gt;&lt;/span&gt;&lt;/span&gt; " style="rhombus;whiteSpace=wrap;html=1;" parent="WIyWlLk6GJQsqaUBKTNV-1" vertex="1">
          <mxGeometry x="330" y="430" width="140" height="130" as="geometry" />
        </mxCell>
        <mxCell id="rJLKmksMfXtSssTEuBwt-25" value="" style="endArrow=classic;html=1;rounded=0;entryX=0.5;entryY=0;entryDx=0;entryDy=0;exitX=0.5;exitY=1;exitDx=0;exitDy=0;" parent="WIyWlLk6GJQsqaUBKTNV-1" source="rJLKmksMfXtSssTEuBwt-14" target="rJLKmksMfXtSssTEuBwt-21" edge="1">
          <mxGeometry width="50" height="50" relative="1" as="geometry">
            <mxPoint x="390" y="770" as="sourcePoint" />
            <mxPoint x="440" y="720" as="targetPoint" />
          </mxGeometry>
        </mxCell>
        <mxCell id="rJLKmksMfXtSssTEuBwt-26" value="no" style="text;html=1;strokeColor=none;fillColor=none;align=center;verticalAlign=middle;whiteSpace=wrap;rounded=0;" parent="WIyWlLk6GJQsqaUBKTNV-1" vertex="1">
          <mxGeometry x="400" y="560" width="60" height="30" as="geometry" />
        </mxCell>
        <mxCell id="rJLKmksMfXtSssTEuBwt-54" value="" style="edgeStyle=orthogonalEdgeStyle;rounded=0;orthogonalLoop=1;jettySize=auto;html=1;entryX=0.5;entryY=0;entryDx=0;entryDy=0;" parent="WIyWlLk6GJQsqaUBKTNV-1" source="rJLKmksMfXtSssTEuBwt-27" target="rJLKmksMfXtSssTEuBwt-51" edge="1">
          <mxGeometry relative="1" as="geometry">
            <mxPoint x="-10" y="685" as="targetPoint" />
            <Array as="points">
              <mxPoint x="170" y="685" />
              <mxPoint x="80" y="685" />
            </Array>
          </mxGeometry>
        </mxCell>
        <mxCell id="rJLKmksMfXtSssTEuBwt-27" value="&lt;span class=&quot;VIiyi&quot; lang=&quot;en&quot;&gt;&lt;span class=&quot;JLqJ4b ChMk0b&quot;&gt;&lt;span&gt;in the case of a canceled application, the employee receives information about the cancellation of the application, puts the envelope on a stack of envelopes to be picked up by students (entry to the database as an envelope awaiting collection)&lt;/span&gt;&lt;/span&gt;&lt;/span&gt; " style="whiteSpace=wrap;html=1;" parent="WIyWlLk6GJQsqaUBKTNV-1" vertex="1">
          <mxGeometry x="60" y="441.25" width="220" height="107.5" as="geometry" />
        </mxCell>
        <mxCell id="rJLKmksMfXtSssTEuBwt-29" value="yes" style="text;html=1;strokeColor=none;fillColor=none;align=center;verticalAlign=middle;whiteSpace=wrap;rounded=0;" parent="WIyWlLk6GJQsqaUBKTNV-1" vertex="1">
          <mxGeometry x="275" y="460" width="60" height="30" as="geometry" />
        </mxCell>
        <mxCell id="rJLKmksMfXtSssTEuBwt-42" value="" style="edgeStyle=orthogonalEdgeStyle;rounded=0;orthogonalLoop=1;jettySize=auto;html=1;" parent="WIyWlLk6GJQsqaUBKTNV-1" source="rJLKmksMfXtSssTEuBwt-30" target="rJLKmksMfXtSssTEuBwt-41" edge="1">
          <mxGeometry relative="1" as="geometry" />
        </mxCell>
        <mxCell id="rJLKmksMfXtSssTEuBwt-30" value="&lt;span class=&quot;VIiyi&quot; lang=&quot;en&quot;&gt;&lt;span class=&quot;JLqJ4b ChMk0b&quot;&gt;&lt;span&gt;application contain full set of documents&lt;/span&gt;&lt;/span&gt;&lt;/span&gt; " style="rhombus;whiteSpace=wrap;html=1;" parent="WIyWlLk6GJQsqaUBKTNV-1" vertex="1">
          <mxGeometry x="320" y="920" width="160" height="148.13" as="geometry" />
        </mxCell>
        <mxCell id="rJLKmksMfXtSssTEuBwt-32" value="yes" style="text;html=1;strokeColor=none;fillColor=none;align=center;verticalAlign=middle;whiteSpace=wrap;rounded=0;" parent="WIyWlLk6GJQsqaUBKTNV-1" vertex="1">
          <mxGeometry x="405" y="740" width="60" height="30" as="geometry" />
        </mxCell>
        <mxCell id="rJLKmksMfXtSssTEuBwt-67" value="" style="edgeStyle=orthogonalEdgeStyle;rounded=0;orthogonalLoop=1;jettySize=auto;html=1;" parent="WIyWlLk6GJQsqaUBKTNV-1" source="rJLKmksMfXtSssTEuBwt-35" target="rJLKmksMfXtSssTEuBwt-66" edge="1">
          <mxGeometry relative="1" as="geometry" />
        </mxCell>
        <mxCell id="rJLKmksMfXtSssTEuBwt-35" value="&lt;span class=&quot;VIiyi&quot; lang=&quot;en&quot;&gt;&lt;span class=&quot;JLqJ4b ChMk0b&quot;&gt;&lt;span&gt;in the case of having all the documents, the employee scans the documents (scanning the documents together with downloading the relevant data from the scans and saving everything in the db)&lt;/span&gt;&lt;/span&gt;&lt;/span&gt; " style="rounded=0;whiteSpace=wrap;html=1;" parent="WIyWlLk6GJQsqaUBKTNV-1" vertex="1">
          <mxGeometry x="275" y="1160" width="250" height="80" as="geometry" />
        </mxCell>
        <mxCell id="rJLKmksMfXtSssTEuBwt-36" value="yes" style="text;html=1;strokeColor=none;fillColor=none;align=center;verticalAlign=middle;whiteSpace=wrap;rounded=0;" parent="WIyWlLk6GJQsqaUBKTNV-1" vertex="1">
          <mxGeometry x="395" y="1090" width="60" height="30" as="geometry" />
        </mxCell>
        <mxCell id="rJLKmksMfXtSssTEuBwt-37" value="&lt;span class=&quot;VIiyi&quot; lang=&quot;en&quot;&gt;&lt;span class=&quot;JLqJ4b ChMk0b&quot;&gt;&lt;span&gt;in the case of information about paying for the application, the employee is displayed in the form of thumbnails or pictograms a list of documents that should be in the envelope, the employee opens the envelope and selects documents found inside (entry of the list of documents provided to the database)&lt;/span&gt;&lt;/span&gt;&lt;/span&gt; " style="shape=parallelogram;perimeter=parallelogramPerimeter;whiteSpace=wrap;html=1;fixedSize=1;" parent="WIyWlLk6GJQsqaUBKTNV-1" vertex="1">
          <mxGeometry x="200" y="780" width="400" height="90" as="geometry" />
        </mxCell>
        <mxCell id="rJLKmksMfXtSssTEuBwt-45" value="" style="edgeStyle=orthogonalEdgeStyle;rounded=0;orthogonalLoop=1;jettySize=auto;html=1;" parent="WIyWlLk6GJQsqaUBKTNV-1" source="rJLKmksMfXtSssTEuBwt-41" target="rJLKmksMfXtSssTEuBwt-44" edge="1">
          <mxGeometry relative="1" as="geometry" />
        </mxCell>
        <mxCell id="rJLKmksMfXtSssTEuBwt-41" value="&lt;span class=&quot;VIiyi&quot; lang=&quot;en&quot;&gt;&lt;span class=&quot;JLqJ4b ChMk0b&quot;&gt;&lt;span&gt;in the case of incomplete documents, the program displays the missing documents along with the student&#39;s contact number, the employee calls to inform about the need to send the missing documents (change of the application status in db as waiting for missing documents)&lt;/span&gt;&lt;/span&gt;&lt;/span&gt; " style="whiteSpace=wrap;html=1;" parent="WIyWlLk6GJQsqaUBKTNV-1" vertex="1">
          <mxGeometry x="520" y="950" width="270" height="90" as="geometry" />
        </mxCell>
        <mxCell id="rJLKmksMfXtSssTEuBwt-43" value="no" style="text;html=1;strokeColor=none;fillColor=none;align=center;verticalAlign=middle;whiteSpace=wrap;rounded=0;" parent="WIyWlLk6GJQsqaUBKTNV-1" vertex="1">
          <mxGeometry x="470" y="950" width="60" height="30" as="geometry" />
        </mxCell>
        <mxCell id="rJLKmksMfXtSssTEuBwt-48" value="" style="edgeStyle=orthogonalEdgeStyle;rounded=0;orthogonalLoop=1;jettySize=auto;html=1;" parent="WIyWlLk6GJQsqaUBKTNV-1" source="rJLKmksMfXtSssTEuBwt-44" target="rJLKmksMfXtSssTEuBwt-50" edge="1">
          <mxGeometry relative="1" as="geometry">
            <mxPoint x="665" y="1430.005" as="targetPoint" />
          </mxGeometry>
        </mxCell>
        <mxCell id="rJLKmksMfXtSssTEuBwt-44" value="&lt;span class=&quot;VIiyi&quot; lang=&quot;en&quot;&gt;&lt;span class=&quot;JLqJ4b ChMk0b&quot;&gt;&lt;span&gt;telephone contact was successful&lt;/span&gt;&lt;/span&gt;&lt;/span&gt; " style="rhombus;whiteSpace=wrap;html=1;" parent="WIyWlLk6GJQsqaUBKTNV-1" vertex="1">
          <mxGeometry x="577.5" y="1110" width="155" height="120.01" as="geometry" />
        </mxCell>
        <mxCell id="rJLKmksMfXtSssTEuBwt-49" value="no" style="text;html=1;strokeColor=none;fillColor=none;align=center;verticalAlign=middle;whiteSpace=wrap;rounded=0;" parent="WIyWlLk6GJQsqaUBKTNV-1" vertex="1">
          <mxGeometry x="650" y="1230.01" width="60" height="30" as="geometry" />
        </mxCell>
        <mxCell id="rJLKmksMfXtSssTEuBwt-50" value="&lt;span class=&quot;VIiyi&quot; lang=&quot;en&quot;&gt;&lt;span class=&quot;JLqJ4b ChMk0b&quot;&gt;&lt;span&gt;if it is not possible to contact by phone, the employee selects no contact option and the program sends an automatic e-mail with information about missing documents (change of the application status in db as waiting for missing documents, e-mail with read confirmation, writing to db whether e-mail has been read or waiting for&lt;/span&gt;&lt;/span&gt; &lt;span class=&quot;JLqJ4b ChMk0b&quot;&gt;&lt;span&gt;reading)&lt;/span&gt;&lt;/span&gt;&lt;/span&gt; " style="rounded=0;whiteSpace=wrap;html=1;" parent="WIyWlLk6GJQsqaUBKTNV-1" vertex="1">
          <mxGeometry x="505" y="1270" width="300" height="110" as="geometry" />
        </mxCell>
        <mxCell id="rJLKmksMfXtSssTEuBwt-51" value="&lt;span class=&quot;VIiyi&quot; lang=&quot;en&quot;&gt;&lt;span class=&quot;JLqJ4b ChMk0b&quot;&gt;&lt;span&gt;the documents are waiting for collection by the student&lt;/span&gt;&lt;/span&gt;&lt;/span&gt; " style="rounded=1;whiteSpace=wrap;html=1;" parent="WIyWlLk6GJQsqaUBKTNV-1" vertex="1">
          <mxGeometry x="20" y="1820" width="120" height="60" as="geometry" />
        </mxCell>
        <mxCell id="rJLKmksMfXtSssTEuBwt-52" value="" style="edgeStyle=orthogonalEdgeStyle;rounded=0;orthogonalLoop=1;jettySize=auto;html=1;exitX=1;exitY=0.5;exitDx=0;exitDy=0;entryX=1;entryY=0.5;entryDx=0;entryDy=0;" parent="WIyWlLk6GJQsqaUBKTNV-1" source="rJLKmksMfXtSssTEuBwt-44" target="rJLKmksMfXtSssTEuBwt-10" edge="1">
          <mxGeometry relative="1" as="geometry">
            <mxPoint x="575" y="1380.0300000000002" as="sourcePoint" />
            <mxPoint x="445" y="1421.9" as="targetPoint" />
            <Array as="points">
              <mxPoint x="800" y="1170" />
              <mxPoint x="800" y="150" />
            </Array>
          </mxGeometry>
        </mxCell>
        <mxCell id="rJLKmksMfXtSssTEuBwt-53" value="yes" style="text;html=1;strokeColor=none;fillColor=none;align=center;verticalAlign=middle;whiteSpace=wrap;rounded=0;" parent="WIyWlLk6GJQsqaUBKTNV-1" vertex="1">
          <mxGeometry x="730" y="1130" width="60" height="30" as="geometry" />
        </mxCell>
        <mxCell id="rJLKmksMfXtSssTEuBwt-57" value="" style="edgeStyle=orthogonalEdgeStyle;rounded=0;orthogonalLoop=1;jettySize=auto;html=1;" parent="WIyWlLk6GJQsqaUBKTNV-1" source="rJLKmksMfXtSssTEuBwt-59" edge="1">
          <mxGeometry relative="1" as="geometry">
            <mxPoint x="637.5" y="655" as="sourcePoint" />
            <mxPoint x="400" y="398" as="targetPoint" />
            <Array as="points">
              <mxPoint x="400" y="398" />
            </Array>
          </mxGeometry>
        </mxCell>
        <mxCell id="rJLKmksMfXtSssTEuBwt-85" value="" style="edgeStyle=orthogonalEdgeStyle;rounded=0;orthogonalLoop=1;jettySize=auto;html=1;" parent="WIyWlLk6GJQsqaUBKTNV-1" source="rJLKmksMfXtSssTEuBwt-59" edge="1">
          <mxGeometry relative="1" as="geometry">
            <mxPoint x="400" y="1550" as="targetPoint" />
            <Array as="points">
              <mxPoint x="810" y="398" />
              <mxPoint x="810" y="1550" />
              <mxPoint x="400" y="1550" />
            </Array>
          </mxGeometry>
        </mxCell>
        <mxCell id="rJLKmksMfXtSssTEuBwt-59" value="&lt;span class=&quot;VIiyi&quot; lang=&quot;en&quot;&gt;&lt;span class=&quot;JLqJ4b ChMk0b&quot;&gt;&lt;span&gt;checking if any changes to the application status occured&lt;/span&gt;&lt;/span&gt;&lt;/span&gt; " style="rhombus;whiteSpace=wrap;html=1;" parent="WIyWlLk6GJQsqaUBKTNV-1" vertex="1">
          <mxGeometry x="557.5" y="327.5" width="152.5" height="140" as="geometry" />
        </mxCell>
        <mxCell id="rJLKmksMfXtSssTEuBwt-60" value="yes" style="text;html=1;strokeColor=none;fillColor=none;align=center;verticalAlign=middle;whiteSpace=wrap;rounded=0;" parent="WIyWlLk6GJQsqaUBKTNV-1" vertex="1">
          <mxGeometry x="455" y="370" width="60" height="30" as="geometry" />
        </mxCell>
        <mxCell id="rJLKmksMfXtSssTEuBwt-63" value="" style="edgeStyle=orthogonalEdgeStyle;rounded=0;orthogonalLoop=1;jettySize=auto;html=1;entryX=0.5;entryY=0;entryDx=0;entryDy=0;" parent="WIyWlLk6GJQsqaUBKTNV-1" source="rJLKmksMfXtSssTEuBwt-37" target="rJLKmksMfXtSssTEuBwt-30" edge="1">
          <mxGeometry relative="1" as="geometry">
            <mxPoint x="475" y="1160" as="sourcePoint" />
            <mxPoint x="505.04" y="1160" as="targetPoint" />
          </mxGeometry>
        </mxCell>
        <mxCell id="rJLKmksMfXtSssTEuBwt-64" value="" style="edgeStyle=orthogonalEdgeStyle;rounded=0;orthogonalLoop=1;jettySize=auto;html=1;entryX=0.5;entryY=0;entryDx=0;entryDy=0;exitX=0.5;exitY=1;exitDx=0;exitDy=0;" parent="WIyWlLk6GJQsqaUBKTNV-1" source="rJLKmksMfXtSssTEuBwt-30" target="rJLKmksMfXtSssTEuBwt-35" edge="1">
          <mxGeometry relative="1" as="geometry">
            <mxPoint x="430" y="1350" as="sourcePoint" />
            <mxPoint x="210.04000000000002" y="1330" as="targetPoint" />
          </mxGeometry>
        </mxCell>
        <mxCell id="rJLKmksMfXtSssTEuBwt-69" value="" style="edgeStyle=orthogonalEdgeStyle;rounded=0;orthogonalLoop=1;jettySize=auto;html=1;" parent="WIyWlLk6GJQsqaUBKTNV-1" source="rJLKmksMfXtSssTEuBwt-66" target="rJLKmksMfXtSssTEuBwt-68" edge="1">
          <mxGeometry relative="1" as="geometry" />
        </mxCell>
        <mxCell id="rJLKmksMfXtSssTEuBwt-66" value="&lt;span class=&quot;VIiyi&quot; lang=&quot;en&quot;&gt;&lt;span class=&quot;JLqJ4b ChMk0b&quot;&gt;&lt;span&gt;in the case of correct application, the algorithm calculates the student&#39;s points and puts them in the appropriate place on the list of students depending on the points obtained by him (the list is variable due to the constantly flowing applications and cancellations by students)&lt;/span&gt;&lt;/span&gt;&lt;/span&gt; " style="whiteSpace=wrap;html=1;rounded=0;" parent="WIyWlLk6GJQsqaUBKTNV-1" vertex="1">
          <mxGeometry x="240" y="1390" width="320" height="120" as="geometry" />
        </mxCell>
        <mxCell id="rJLKmksMfXtSssTEuBwt-71" value="" style="edgeStyle=orthogonalEdgeStyle;rounded=0;orthogonalLoop=1;jettySize=auto;html=1;" parent="WIyWlLk6GJQsqaUBKTNV-1" source="rJLKmksMfXtSssTEuBwt-68" edge="1">
          <mxGeometry relative="1" as="geometry">
            <mxPoint x="630" y="480" as="targetPoint" />
            <Array as="points">
              <mxPoint x="820" y="1930" />
              <mxPoint x="820" y="480" />
              <mxPoint x="640" y="480" />
            </Array>
          </mxGeometry>
        </mxCell>
        <mxCell id="rJLKmksMfXtSssTEuBwt-76" value="" style="edgeStyle=orthogonalEdgeStyle;rounded=0;orthogonalLoop=1;jettySize=auto;html=1;" parent="WIyWlLk6GJQsqaUBKTNV-1" source="rJLKmksMfXtSssTEuBwt-68" target="rJLKmksMfXtSssTEuBwt-75" edge="1">
          <mxGeometry relative="1" as="geometry" />
        </mxCell>
        <mxCell id="rJLKmksMfXtSssTEuBwt-68" value="&lt;span class=&quot;VIiyi&quot; lang=&quot;en&quot;&gt;&lt;span class=&quot;JLqJ4b ChMk0b&quot;&gt;&lt;span&gt;&amp;nbsp;iteration period has ended&lt;/span&gt;&lt;/span&gt;&lt;/span&gt;" style="rhombus;whiteSpace=wrap;html=1;rounded=0;" parent="WIyWlLk6GJQsqaUBKTNV-1" vertex="1">
          <mxGeometry x="325" y="1570" width="150" height="120" as="geometry" />
        </mxCell>
        <mxCell id="rJLKmksMfXtSssTEuBwt-72" value="yes" style="text;html=1;strokeColor=none;fillColor=none;align=center;verticalAlign=middle;whiteSpace=wrap;rounded=0;" parent="WIyWlLk6GJQsqaUBKTNV-1" vertex="1">
          <mxGeometry x="485" y="1600" width="60" height="30" as="geometry" />
        </mxCell>
        <mxCell id="rJLKmksMfXtSssTEuBwt-83" value="" style="edgeStyle=orthogonalEdgeStyle;rounded=0;orthogonalLoop=1;jettySize=auto;html=1;" parent="WIyWlLk6GJQsqaUBKTNV-1" source="rJLKmksMfXtSssTEuBwt-74" target="rJLKmksMfXtSssTEuBwt-82" edge="1">
          <mxGeometry relative="1" as="geometry" />
        </mxCell>
        <mxCell id="rJLKmksMfXtSssTEuBwt-74" value="&lt;span class=&quot;VIiyi&quot; lang=&quot;en&quot;&gt;&lt;span class=&quot;JLqJ4b ChMk0b&quot;&gt;&lt;span&gt;at the end of the enrollment (end of the application deadline), all applications that have the status of waiting are renamed as canceled (envelopes with applications are put on a collection pile, a list of students who have been admitted to a given field of study is published on the university&#39;s website.&lt;/span&gt;&lt;/span&gt;&lt;/span&gt; " style="shape=parallelogram;perimeter=parallelogramPerimeter;whiteSpace=wrap;html=1;fixedSize=1;" parent="WIyWlLk6GJQsqaUBKTNV-1" vertex="1">
          <mxGeometry x="215" y="1910" width="370" height="110" as="geometry" />
        </mxCell>
        <mxCell id="rJLKmksMfXtSssTEuBwt-78" value="" style="edgeStyle=orthogonalEdgeStyle;rounded=0;orthogonalLoop=1;jettySize=auto;html=1;" parent="WIyWlLk6GJQsqaUBKTNV-1" source="rJLKmksMfXtSssTEuBwt-75" target="rJLKmksMfXtSssTEuBwt-74" edge="1">
          <mxGeometry relative="1" as="geometry" />
        </mxCell>
        <mxCell id="rJLKmksMfXtSssTEuBwt-80" value="" style="edgeStyle=orthogonalEdgeStyle;rounded=0;orthogonalLoop=1;jettySize=auto;html=1;entryX=0;entryY=0.5;entryDx=0;entryDy=0;exitX=0;exitY=0.5;exitDx=0;exitDy=0;" parent="WIyWlLk6GJQsqaUBKTNV-1" source="rJLKmksMfXtSssTEuBwt-75" target="rJLKmksMfXtSssTEuBwt-68" edge="1">
          <mxGeometry relative="1" as="geometry">
            <mxPoint x="220" y="1920" as="targetPoint" />
            <Array as="points">
              <mxPoint x="290" y="1775" />
              <mxPoint x="290" y="1630" />
            </Array>
          </mxGeometry>
        </mxCell>
        <mxCell id="rJLKmksMfXtSssTEuBwt-75" value="&lt;span class=&quot;VIiyi&quot; lang=&quot;en&quot;&gt;&lt;span class=&quot;JLqJ4b ChMk0b&quot;&gt;&lt;span&gt;recruitment has ended&lt;/span&gt;&lt;/span&gt;&lt;/span&gt; " style="rhombus;whiteSpace=wrap;html=1;rounded=0;" parent="WIyWlLk6GJQsqaUBKTNV-1" vertex="1">
          <mxGeometry x="335" y="1720" width="130" height="110" as="geometry" />
        </mxCell>
        <mxCell id="rJLKmksMfXtSssTEuBwt-77" value="no" style="text;html=1;strokeColor=none;fillColor=none;align=center;verticalAlign=middle;whiteSpace=wrap;rounded=0;" parent="WIyWlLk6GJQsqaUBKTNV-1" vertex="1">
          <mxGeometry x="390" y="1690" width="60" height="30" as="geometry" />
        </mxCell>
        <mxCell id="rJLKmksMfXtSssTEuBwt-79" value="yes" style="text;html=1;strokeColor=none;fillColor=none;align=center;verticalAlign=middle;whiteSpace=wrap;rounded=0;" parent="WIyWlLk6GJQsqaUBKTNV-1" vertex="1">
          <mxGeometry x="390" y="1850" width="60" height="30" as="geometry" />
        </mxCell>
        <mxCell id="rJLKmksMfXtSssTEuBwt-81" value="no" style="text;html=1;strokeColor=none;fillColor=none;align=center;verticalAlign=middle;whiteSpace=wrap;rounded=0;" parent="WIyWlLk6GJQsqaUBKTNV-1" vertex="1">
          <mxGeometry x="280" y="1690" width="60" height="30" as="geometry" />
        </mxCell>
        <mxCell id="rJLKmksMfXtSssTEuBwt-84" value="" style="edgeStyle=orthogonalEdgeStyle;rounded=0;orthogonalLoop=1;jettySize=auto;html=1;entryX=0.5;entryY=1;entryDx=0;entryDy=0;" parent="WIyWlLk6GJQsqaUBKTNV-1" source="rJLKmksMfXtSssTEuBwt-82" target="rJLKmksMfXtSssTEuBwt-51" edge="1">
          <mxGeometry relative="1" as="geometry">
            <mxPoint x="115" y="2117.5" as="targetPoint" />
          </mxGeometry>
        </mxCell>
        <mxCell id="rJLKmksMfXtSssTEuBwt-82" value="&lt;span class=&quot;VIiyi&quot; lang=&quot;en&quot;&gt;&lt;span class=&quot;JLqJ4b ChMk0b&quot;&gt;&lt;span&gt;applications that have not been considered are canceled, documents handed over for collection&lt;/span&gt;&lt;/span&gt;&lt;/span&gt;" style="whiteSpace=wrap;html=1;" parent="WIyWlLk6GJQsqaUBKTNV-1" vertex="1">
          <mxGeometry x="15" y="1917.5" width="130" height="95" as="geometry" />
        </mxCell>
        <mxCell id="rJLKmksMfXtSssTEuBwt-86" value="no" style="text;html=1;strokeColor=none;fillColor=none;align=center;verticalAlign=middle;whiteSpace=wrap;rounded=0;" parent="WIyWlLk6GJQsqaUBKTNV-1" vertex="1">
          <mxGeometry x="720" y="370" width="60" height="30" as="geometry" />
        </mxCell>
      </root>
    </mxGraphModel>
  </diagram>
</mxfile>
